<?xml version="1.0" standalone="no"?>
<!DOCTYPE svg PUBLIC "-//W3C//DTD SVG 20010904//EN"
 "http://www.w3.org/TR/2001/REC-SVG-20010904/DTD/svg10.dtd">
<svg version="1.0" xmlns="http://www.w3.org/2000/svg"
 width="76.000000pt" height="76.000000pt" viewBox="0 0 76.000000 76.000000"
 preserveAspectRatio="xMidYMid meet">
<metadata>
Created by potrace 1.16, written by Peter Selinger 2001-2019
</metadata>
<g transform="translate(0.000000,76.000000) scale(0.100000,-0.100000)"
fill="#000000" stroke="none">
<path d="M0 380 l0 -380 380 0 380 0 0 380 0 380 -380 0 -380 0 0 -380z m710
335 c17 -20 5 -127 -20 -174 -38 -73 -110 -133 -181 -152 l-45 -12 14 -71 c19
-100 11 -215 -19 -238 -23 -19 -75 -24 -98 -9 -15 9 -14 18 13 116 16 60 20
138 8 165 -5 12 -27 15 -92 16 -67 0 -94 5 -126 22 -49 25 -121 105 -133 147
-7 26 -5 33 16 51 29 24 86 44 130 44 47 0 126 -27 170 -59 l40 -29 16 33 c34
71 113 139 181 155 55 14 113 11 126 -5z"/>
</g>
</svg>
